<svg id="visual" viewBox="0 0 900 600" width="900" height="600" xmlns="http://www.w3.org/2000/svg" xmlns:xlink="http://www.w3.org/1999/xlink" version="1.1"><path d="M0 491L8.3 485.8C16.7 480.7 33.3 470.3 50 471.3C66.7 472.3 83.3 484.7 100 483.3C116.7 482 133.3 467 150 459.7C166.7 452.3 183.3 452.7 200 454.8C216.7 457 233.3 461 250 466.2C266.7 471.3 283.3 477.7 300 480.5C316.7 483.3 333.3 482.7 350 484.3C366.7 486 383.3 490 400 494.2C416.7 498.3 433.3 502.7 450 504.5C466.7 506.3 483.3 505.7 500 498.8C516.7 492 533.3 479 550 474.5C566.7 470 583.3 474 600 477.8C616.7 481.7 633.3 485.3 650 483.7C666.7 482 683.3 475 700 467.5C716.7 460 733.3 452 750 447.5C766.7 443 783.3 442 800 446.2C816.7 450.3 833.3 459.7 850 468.2C866.7 476.7 883.3 484.3 891.7 488.2L900 492L900 601L891.7 601C883.3 601 866.7 601 850 601C833.3 601 816.7 601 800 601C783.3 601 766.7 601 750 601C733.3 601 716.7 601 700 601C683.3 601 666.7 601 650 601C633.3 601 616.7 601 600 601C583.3 601 566.7 601 550 601C533.3 601 516.7 601 500 601C483.3 601 466.7 601 450 601C433.3 601 416.7 601 400 601C383.3 601 366.7 601 350 601C333.3 601 316.7 601 300 601C283.3 601 266.7 601 250 601C233.3 601 216.7 601 200 601C183.3 601 166.7 601 150 601C133.3 601 116.7 601 100 601C83.3 601 66.7 601 50 601C33.3 601 16.7 601 8.3 601L0 601Z" fill="#fa7268"></path><path d="M0 521L8.3 519.5C16.7 518 33.3 515 50 512.2C66.7 509.3 83.3 506.7 100 508C116.7 509.3 133.3 514.7 150 511.3C166.7 508 183.3 496 200 488.7C216.7 481.3 233.3 478.7 250 483C266.7 487.3 283.3 498.7 300 500C316.7 501.3 333.3 492.7 350 495.7C366.7 498.7 383.3 513.3 400 510.8C416.7 508.3 433.3 488.7 450 488.5C466.7 488.3 483.3 507.7 500 508.8C516.7 510 533.3 493 550 491.3C566.7 489.7 583.3 503.3 600 507.7C616.7 512 633.3 507 650 501.5C666.7 496 683.3 490 700 494C716.7 498 733.3 512 750 509C766.7 506 783.3 486 800 485C816.7 484 833.3 502 850 501.8C866.7 501.7 883.3 483.3 891.7 474.2L900 465L900 601L891.7 601C883.3 601 866.7 601 850 601C833.3 601 816.7 601 800 601C783.3 601 766.7 601 750 601C733.3 601 716.7 601 700 601C683.3 601 666.7 601 650 601C633.3 601 616.7 601 600 601C583.3 601 566.7 601 550 601C533.3 601 516.7 601 500 601C483.3 601 466.7 601 450 601C433.3 601 416.7 601 400 601C383.3 601 366.7 601 350 601C333.3 601 316.7 601 300 601C283.3 601 266.7 601 250 601C233.3 601 216.7 601 200 601C183.3 601 166.7 601 150 601C133.3 601 116.7 601 100 601C83.3 601 66.7 601 50 601C33.3 601 16.7 601 8.3 601L0 601Z" fill="#ef5f67"></path><path d="M0 502L8.3 503.5C16.7 505 33.3 508 50 515.5C66.7 523 83.3 535 100 534.8C116.7 534.7 133.3 522.3 150 518.2C166.7 514 183.3 518 200 518.3C216.7 518.7 233.3 515.3 250 519.3C266.7 523.3 283.3 534.7 300 534C316.7 533.3 333.3 520.7 350 521.2C366.7 521.7 383.3 535.3 400 542.2C416.7 549 433.3 549 450 541.7C466.7 534.3 483.3 519.7 500 514.7C516.7 509.7 533.3 514.3 550 513.5C566.7 512.7 583.3 506.3 600 503C616.7 499.7 633.3 499.3 650 501.8C666.7 504.3 683.3 509.7 700 514.2C716.7 518.7 733.3 522.3 750 519.5C766.7 516.7 783.3 507.3 800 509.7C816.7 512 833.3 526 850 529.2C866.7 532.3 883.3 524.7 891.7 520.8L900 517L900 601L891.7 601C883.3 601 866.7 601 850 601C833.3 601 816.7 601 800 601C783.3 601 766.7 601 750 601C733.3 601 716.7 601 700 601C683.3 601 666.7 601 650 601C633.3 601 616.7 601 600 601C583.3 601 566.7 601 550 601C533.3 601 516.7 601 500 601C483.3 601 466.7 601 450 601C433.3 601 416.7 601 400 601C383.3 601 366.7 601 350 601C333.3 601 316.7 601 300 601C283.3 601 266.7 601 250 601C233.3 601 216.7 601 200 601C183.3 601 166.7 601 150 601C133.3 601 116.7 601 100 601C83.3 601 66.7 601 50 601C33.3 601 16.7 601 8.3 601L0 601Z" fill="#e34c67"></path><path d="M0 520L8.3 520.2C16.7 520.3 33.3 520.7 50 522.7C66.7 524.7 83.3 528.3 100 528.5C116.7 528.7 133.3 525.3 150 523.8C166.7 522.3 183.3 522.7 200 529.5C216.7 536.3 233.3 549.7 250 557.5C266.7 565.3 283.3 567.7 300 565.3C316.7 563 333.3 556 350 552C366.7 548 383.3 547 400 548.7C416.7 550.3 433.3 554.7 450 557.2C466.7 559.7 483.3 560.3 500 558C516.7 555.7 533.3 550.3 550 543.8C566.7 537.3 583.3 529.7 600 525.8C616.7 522 633.3 522 650 526.3C666.7 530.7 683.3 539.3 700 542.7C716.7 546 733.3 544 750 540.3C766.7 536.7 783.3 531.3 800 531C816.7 530.7 833.3 535.3 850 534.8C866.7 534.3 883.3 528.7 891.7 525.8L900 523L900 601L891.7 601C883.3 601 866.7 601 850 601C833.3 601 816.7 601 800 601C783.3 601 766.7 601 750 601C733.3 601 716.7 601 700 601C683.3 601 666.7 601 650 601C633.3 601 616.7 601 600 601C583.3 601 566.7 601 550 601C533.3 601 516.7 601 500 601C483.3 601 466.7 601 450 601C433.3 601 416.7 601 400 601C383.3 601 366.7 601 350 601C333.3 601 316.7 601 300 601C283.3 601 266.7 601 250 601C233.3 601 216.7 601 200 601C183.3 601 166.7 601 150 601C133.3 601 116.7 601 100 601C83.3 601 66.7 601 50 601C33.3 601 16.7 601 8.3 601L0 601Z" fill="#d53867"></path><path d="M0 562L8.3 564.8C16.7 567.7 33.3 573.3 50 576.3C66.7 579.3 83.3 579.7 100 577.3C116.7 575 133.3 570 150 564.7C166.7 559.3 183.3 553.7 200 556.3C216.7 559 233.3 570 250 573.7C266.7 577.3 283.3 573.7 300 574.5C316.7 575.3 333.3 580.7 350 578.5C366.7 576.3 383.3 566.7 400 562.5C416.7 558.3 433.3 559.7 450 565C466.7 570.3 483.3 579.7 500 580.2C516.7 580.7 533.3 572.3 550 571C566.7 569.7 583.3 575.3 600 573.2C616.7 571 633.3 561 650 562.5C666.7 564 683.3 577 700 578.7C716.7 580.3 733.3 570.7 750 564.7C766.7 558.7 783.3 556.3 800 555.8C816.7 555.3 833.3 556.7 850 558.8C866.7 561 883.3 564 891.7 565.5L900 567L900 601L891.7 601C883.3 601 866.7 601 850 601C833.3 601 816.7 601 800 601C783.3 601 766.7 601 750 601C733.3 601 716.7 601 700 601C683.3 601 666.7 601 650 601C633.3 601 616.7 601 600 601C583.3 601 566.7 601 550 601C533.3 601 516.7 601 500 601C483.3 601 466.7 601 450 601C433.3 601 416.7 601 400 601C383.3 601 366.7 601 350 601C333.3 601 316.7 601 300 601C283.3 601 266.7 601 250 601C233.3 601 216.7 601 200 601C183.3 601 166.7 601 150 601C133.3 601 116.7 601 100 601C83.3 601 66.7 601 50 601C33.3 601 16.7 601 8.3 601L0 601Z" fill="#c62368"></path></svg>